<?xml version="1.0" standalone="no"?>
<!DOCTYPE svg PUBLIC "-//W3C//DTD SVG 20010904//EN"
 "http://www.w3.org/TR/2001/REC-SVG-20010904/DTD/svg10.dtd">
<svg version="1.0" xmlns="http://www.w3.org/2000/svg"
 width="600.000000pt" height="600.000000pt" viewBox="0 0 600.000000 600.000000"
 preserveAspectRatio="xMidYMid meet">
<metadata>
Created by potrace 1.14, written by Peter Selinger 2001-2017
</metadata>
<g transform="translate(0.000000,600.000000) scale(0.100000,-0.100000)"
fill="#000000" stroke="none">
<path d="M4953 4286 c-198 -38 -457 -159 -728 -339 -575 -384 -1134 -909
-1450 -1361 l-65 -94 146 -269 c226 -414 307 -540 462 -720 127 -148 307 -264
461 -298 95 -21 257 -21 335 0 176 47 327 189 387 365 29 87 36 239 15 337
-34 163 -160 343 -241 343 -24 0 -18 -26 20 -83 42 -64 99 -209 126 -325 29
-122 24 -265 -13 -337 -30 -59 -97 -124 -160 -156 -54 -28 -173 -37 -250 -19
-230 55 -477 290 -841 803 -61 88 -156 220 -210 294 -63 87 -94 139 -90 148
21 36 284 313 410 431 623 583 1245 995 1664 1104 246 63 543 18 638 -97 36
-43 55 -117 46 -173 -6 -36 -5 -40 14 -40 34 0 44 34 39 134 -5 110 -23 149
-100 222 -64 61 -110 86 -209 115 -95 27 -301 35 -406 15z"/>
<path d="M2805 4274 c-465 -63 -857 -301 -1090 -663 -183 -283 -204 -653 -46
-823 101 -111 313 -150 474 -88 94 36 89 79 -7 54 -85 -23 -174 -18 -234 12
-105 52 -150 152 -139 311 23 330 258 699 582 915 272 180 583 258 877 218
101 -13 332 -69 388 -94 l35 -15 -30 -1 c-38 0 -151 -32 -196 -55 -196 -101
-411 -322 -614 -629 -135 -206 -210 -344 -443 -819 -231 -469 -276 -553 -398
-737 -191 -291 -383 -476 -558 -538 -62 -23 -87 -26 -206 -26 -153 -1 -177 6
-257 78 -38 35 -46 49 -49 81 -3 44 -17 48 -46 13 -36 -42 -14 -142 44 -195
78 -73 324 -93 510 -42 225 63 402 169 591 357 237 233 408 527 676 1157 152
357 219 500 311 659 197 346 364 537 538 619 70 33 179 47 229 30 15 -6 34 -8
41 -6 26 9 10 33 -47 71 -212 141 -587 204 -936 156z"/>
</g>
</svg>
